<svg viewBox="0 0 24 24" xmlns="http://www.w3.org/2000/svg" id="google-solid">
    <g fill="currentColor">
<path d="M12 1C18.0751 1 23 5.92487 23 12C23 18.0751 18.0751 23 12 23C5.92487 23 1 18.0751 1 12C1 5.92487 5.92487 1 12 1ZM12.1309 4C7.63263 4.00015 4 7.57429 4 12C4 16.4257 7.63263 19.9998 12.1309 20C16.8225 20 19.9998 16.7518 20 12.1875C20 11.6552 19.9475 11.2613 19.8721 10.8516H12.1309V13.6035H16.7471C16.5567 14.781 15.3502 17.0518 12.1309 17.0518C9.35722 17.0516 7.0918 14.7903 7.0918 12C7.0918 7.50323 12.475 5.43911 15.3701 8.1875L17.584 6.09375C16.1644 4.79052 14.321 4 12.1309 4Z" />
</g>
</svg>
