<svg xmlns="http://www.w3.org/2000/svg" viewBox="0 0 24 24" id="pinterest-solid">
    <g fill="currentColor">
        <path
           d="M12 1C18.0751 1 23 5.92487 23 12C23 18.0751 18.0751 23 12 23C5.92487 23 1 18.0751 1 12C1 5.92487 5.92487 1 12 1ZM12.375 4C9.16882 4 6.00014 6.19262 6 9.74121C6 11.9978 7.23729 13.2801 7.9873 13.2803C8.29668 13.2803 8.47461 12.3956 8.47461 12.1455C8.47423 11.8473 7.73453 11.2127 7.73438 9.97266C7.73438 7.39526 9.64707 5.56738 12.1221 5.56738C14.2501 5.56746 15.8252 6.80869 15.8252 9.08789C15.8251 10.7902 15.159 13.9824 13.0029 13.9824C12.2249 13.9823 11.5596 13.4051 11.5596 12.5781C11.5597 11.3665 12.3847 10.1934 12.3848 8.94336C12.3848 6.82117 9.4502 7.20593 9.4502 9.77051C9.45021 10.309 9.51568 10.9051 9.75 11.3955C9.31876 13.2997 8.43754 16.1367 8.4375 18.0986C8.4375 18.7045 8.52188 19.3013 8.57812 19.9072C8.68408 20.0288 8.63156 20.0159 8.79395 19.9551C10.3689 17.7431 10.3129 17.3098 11.0254 14.415C11.4097 15.1651 12.403 15.5693 13.1904 15.5693C16.5091 15.5693 17.9999 12.2516 18 9.26074C18 6.07746 15.3187 4 12.375 4Z"  />
    </g>
</svg>
