<svg id="book-c-regular" viewBox="0 0 24 24" xmlns="http://www.w3.org/2000/svg">
<g fill="none" stroke="currentColor" stroke-width="2" stroke-linecap="round">
<path d="M19.7143 16.8945C20.4616 16.6367 21 15.9414 21 15.125V3.875C21 2.83984 20.1362 2 19.0714 2H6.85714C4.72768 2 3 3.67969 3 5.75V18.25C3 20.3203 4.72768 22 6.85714 22H18.4286H19.7143C20.4254 22 21 21.4414 21 20.75C21 20.0586 20.4254 19.5 19.7143 19.5M19.7143 16.8945V19.5M19.7143 16.8945L6.85714 17C6.14598 17 5.57143 17.5586 5.57143 18.25C5.57143 18.9414 6.14598 19.5 6.85714 19.5H19.7143M8.10714 11.625H16.5M8.10714 8H16.5"/>
</g>
</svg>
